<?xml version="1.0"?><svg width="248.20137" height="291.28238" xmlns="http://www.w3.org/2000/svg">

 <g>
  <title>Layer 1</title>
  <path fill="#56aaff" fill-rule="nonzero" stroke="#000000" stroke-width="3.287356" stroke-linecap="round" stroke-linejoin="round" stroke-miterlimit="4" id="path2383" d="m232.229233,169.321198c0.018051,60.508224 -49.028503,109.569366 -109.536736,109.569366c-60.508224,0 -109.554784,-49.061142 -109.536736,-109.569366c-0.018047,-60.508224 49.028512,-109.569416 109.536736,-109.569416c60.508232,0 109.554787,49.061192 109.536736,109.569416z"/>
  <path fill="#000000" fill-opacity="0.313725" fill-rule="nonzero" stroke-width="4" stroke-linecap="round" stroke-linejoin="round" stroke-miterlimit="4" id="path3221" d="m225.606979,131.740356c0.076782,1.68158 0.125,3.393311 0.125,5.09375c0,60.464294 -49.066956,109.53125 -109.53125,109.53125c-47.262177,0 -87.591187,-29.999268 -102.9375,-71.96875c2.653503,58.112183 50.673645,104.46875 109.4375,104.46875c60.464294,0 109.53125,-49.066956 109.53125,-109.53125c0,-13.202209 -2.338135,-25.870056 -6.625,-37.59375z"/>
  <path fill="#005fbf" fill-rule="nonzero" stroke="#000000" stroke-width="4" stroke-linecap="round" stroke-linejoin="round" stroke-miterlimit="4" id="path3172" d="m130.872787,279.890869c0,9.090759 14.665344,9.381348 32.735107,9.381348c18.069794,0 32.735138,0.693481 32.735138,-9.381348c0,-17.715942 -14.665344,-32.094116 -32.735138,-32.094116c-18.069763,0 -32.735107,14.378174 -32.735107,32.094116z"/>
  <path fill="#000000" fill-opacity="0.313725" fill-rule="nonzero" stroke-width="4" stroke-linecap="round" stroke-linejoin="round" stroke-miterlimit="4" id="path3236" d="m207.327744,134.035828c0,45.1745 -55.121216,81.83783 -81.837799,81.83783c-25.718262,0 -81.83783,-36.66333 -81.83783,-81.83783c0,-45.174438 24.625031,-81.837769 81.83783,-81.837769c57.222565,0 81.837799,36.66333 81.837799,81.837769z"/>
  <path fill="#005fbf" fill-rule="evenodd" stroke="#000000" stroke-width="4" stroke-linejoin="round" stroke-miterlimit="4" id="path3203" d="m90.050003,187.665771c7.751373,17.933289 11.362885,23.327026 11.133087,33.587524c-0.104675,4.673706 9.185242,-7.636292 9.829468,-13.788574c-0.473206,8.88562 1.198578,11.313721 2.181519,20.506104c0.982941,9.192383 4.243805,25.142517 5.190582,21.566772c1.965912,-7.424622 2.8862,-22.818848 8.277344,-27.577148c2.43985,9.192383 14.914612,24.626831 12.856018,18.738281c-4.998322,-14.297302 -6.836121,-21.151306 -2.457367,-30.052002c7.834961,9.514221 12.317261,13.452454 10.812408,8.131714c-2.539307,-8.978271 1.075439,-21.311523 7.657745,-26.516479c8.355469,-6.607178 -65.480804,-4.949768 -65.480804,-4.596191z"/>
  <path fill="#000000" fill-opacity="0.313725" fill-rule="evenodd" stroke="#000000" stroke-width="4" stroke-linejoin="round" stroke-miterlimit="4" id="path3174" d="m176.198318,288.671265c0,-16.367554 -9.44281,-26.439941 -9.44281,-26.439941c0,0 3.77713,13.849487 3.147614,26.439941l6.295197,0z"/>
  <path fill="#56aaff" fill-rule="nonzero" stroke="#000000" stroke-width="4" stroke-linecap="round" stroke-linejoin="round" stroke-miterlimit="4" id="path3155" d="m120.030762,39.024963c-30.129257,0.610596 -50.931671,11.653259 -63.625,28.75c-24.064438,-2.587799 -44.0625,23.625 -44.0625,23.625c0,0 18.891129,9.44632 32.0625,1.53125c-2.399231,8.711731 -3.5625,18.105957 -3.5625,27.90625c0,45.174484 56.125504,81.84375 81.84375,81.84375c26.716614,0 81.84375,-36.669266 81.84375,-81.84375c0,-9.800293 -1.163895,-19.194519 -3.5625,-27.90625c13.171371,7.91507 32.03125,-1.53125 32.03125,-1.53125c0,0 -19.971222,-26.204559 -44.03125,-23.625c-13.061661,-17.595001 -34.707687,-28.75 -66.28125,-28.75c-0.893951,0 -1.778183,-0.017792 -2.65625,0z"/>
  <path fill="#ffffff" fill-rule="nonzero" stroke="#000000" stroke-width="3.88889" stroke-linecap="round" stroke-linejoin="round" stroke-miterlimit="4" id="path3157" d="m119.062981,108.850929c0.003731,12.518944 -10.143829,22.669518 -22.662766,22.669518c-12.518936,0 -22.666512,-10.150574 -22.662773,-22.669518c-0.003738,-12.518929 10.143837,-22.669525 22.662773,-22.669525c12.518936,0 22.666496,10.150597 22.662766,22.669525z"/>
  <path fill="#ffffff" fill-rule="nonzero" stroke="#000000" stroke-width="3.88889" stroke-linecap="round" stroke-linejoin="round" stroke-miterlimit="4" id="path3159" d="m171.795197,108.850929c0.003723,12.518944 -10.143829,22.669518 -22.662766,22.669518c-12.518951,0 -22.666519,-10.150574 -22.662781,-22.669518c-0.003738,-12.518929 10.143829,-22.669525 22.662781,-22.669525c12.518936,0 22.666489,10.150597 22.662766,22.669525z"/>
  <path fill="#000000" fill-rule="nonzero" stroke-width="47.666691" stroke-linecap="round" stroke-linejoin="round" stroke-miterlimit="4" id="path3161" d="m151.650482,112.850952c0.001221,4.172958 -3.381287,7.556496 -7.55426,7.556496c-4.172989,0 -7.555496,-3.383537 -7.55426,-7.556496c-0.001236,-4.172981 3.381271,-7.556541 7.55426,-7.556541c4.172974,0 7.555481,3.38356 7.55426,7.556541z"/>
  <path fill="#000000" fill-rule="nonzero" stroke-width="47.666691" stroke-linecap="round" stroke-linejoin="round" stroke-miterlimit="4" id="path3163" d="m109.620148,112.850952c0.001228,4.172958 -3.381287,7.556496 -7.554268,7.556496c-4.172981,0 -7.555496,-3.383537 -7.554245,-7.556496c-0.001251,-4.172981 3.381264,-7.556541 7.554245,-7.556541c4.172981,0 7.555496,3.38356 7.554268,7.556541z"/>
  <path fill="#005fbf" fill-rule="evenodd" stroke="#000000" stroke-width="4" stroke-linejoin="round" stroke-miterlimit="4" id="path3179" d="m144.180038,50.234528c-1.993164,-10.39389 12.583099,-36.413971 42.695251,-46.118134c20.716492,-6.676239 55.978973,1.231934 59.32608,41.22995c-13.479828,-23.043762 -37.377869,-28.541229 -48.705841,-23.054504c-22.732269,11.010376 -12.479919,34.475403 -23.362549,40.65744c-10.13089,5.754974 -27.88681,-1.940369 -29.952942,-12.714752z"/>
  <path fill="#000000" fill-opacity="0.313725" fill-rule="nonzero" stroke-width="4" stroke-linecap="round" stroke-linejoin="round" stroke-miterlimit="4" id="path3231" d="m201.249512,94.024963l-1.875,2.65625c0.248886,3.07547 0.34375,6.202637 0.34375,9.375c0,45.174484 -55.127136,81.84375 -81.84375,81.84375c-20.705811,0.000015 -61.096725,-23.755646 -76.0625,-56.59375c7.615814,40.246277 57.17189,71.375015 80.875,71.375c26.716614,0 81.84375,-36.669296 81.84375,-81.84375c0,-9.391541 -1.075378,-18.410278 -3.28125,-26.8125z"/>
  <path fill="#005fbf" fill-rule="nonzero" stroke="#000000" stroke-width="4" stroke-linecap="round" stroke-linejoin="round" stroke-miterlimit="4" id="path3329" d="m115.874985,279.890869c0,9.090759 -14.665344,9.381348 -32.735107,9.381348c-18.069794,0 -32.735138,0.693481 -32.735138,-9.381348c0,-17.715942 14.665344,-32.094116 32.735138,-32.094116c18.069763,0 32.735107,14.378174 32.735107,32.094116z"/>
  <path fill="#000000" fill-opacity="0.313725" fill-rule="evenodd" stroke="#000000" stroke-width="4" stroke-linejoin="round" stroke-miterlimit="4" id="path3331" d="m70.549454,288.671265c0,-16.367554 9.44281,-26.439941 9.44281,-26.439941c0,0 -3.77713,13.849487 -3.147614,26.439941l-6.295197,0z"/>
  <path fill="#000000" fill-rule="nonzero" stroke-width="47.666691" stroke-linecap="round" stroke-linejoin="round" stroke-miterlimit="4" id="path2398" d="m139.287949,173.4823c-2.292725,3.973083 -6.500244,5.838562 -9.396759,4.16626c-2.896545,-1.672302 -3.384735,-6.248901 -1.090302,-10.221008c2.292725,-3.973083 6.500275,-5.838562 9.39679,-4.16626c2.896545,1.672302 3.384705,6.248901 1.090271,10.221008z"/>
  <path fill="#000000" fill-rule="nonzero" stroke-width="47.666691" stroke-linecap="round" stroke-linejoin="round" stroke-miterlimit="4" id="path2412" d="m106.550888,173.4823c2.292725,3.973083 6.500275,5.838562 9.39679,4.16626c2.896545,-1.672302 3.384705,-6.248901 1.090271,-10.221008c-2.292725,-3.973083 -6.500244,-5.838562 -9.39679,-4.16626c-2.896515,1.672302 -3.384705,6.248901 -1.090271,10.221008z"/>
  <path fill="#005fbf" fill-rule="evenodd" stroke="#000000" stroke-width="4" stroke-linejoin="round" stroke-miterlimit="4" id="path3173" d="m104.021317,50.234528c1.993164,-10.39389 -12.583099,-36.413971 -42.695251,-46.118134c-20.716461,-6.676239 -55.978958,1.231934 -59.326065,41.22995c13.479843,-23.043762 37.377853,-28.541229 48.705856,-23.054504c22.732239,11.010376 12.479889,34.475403 23.362549,40.65744c10.130859,5.754974 27.88681,-1.940369 29.952911,-12.714752z"/>
 </g>
</svg>