<?xml version="1.0" encoding="UTF-8" standalone="no"?>
<svg width="132px" height="23px" viewBox="0 0 132 23" version="1.1" xmlns="http://www.w3.org/2000/svg" xmlns:xlink="http://www.w3.org/1999/xlink" xmlns:sketch="http://www.bohemiancoding.com/sketch/ns">
    <!-- Generator: Sketch 3.4.2 (15855) - http://www.bohemiancoding.com/sketch -->
    <title>Fill 1</title>
    <desc>Created with Sketch.</desc>
    <defs></defs>
    <g id="Multicert-Design" stroke="none" stroke-width="1" fill="none" fill-rule="evenodd" sketch:type="MSPage">
        <g id="T1---Home" sketch:type="MSArtboardGroup" transform="translate(-118.000000, -95.000000)" fill="#0099C7">
            <g id="header" sketch:type="MSLayerGroup">
                <g id="Nav-White" transform="translate(118.000000, 24.000000)" sketch:type="MSShapeGroup">
                    <g id="multicert-logo" transform="translate(0.000000, 71.000000)">
                        <path d="M15.3486378,22.6711343 L10.7863228,22.6711343 L10.7863228,12.4471194 L10.7863228,11.5308955 C10.7863228,10.4794179 10.4616929,9.71698507 9.82351969,9.23776119 C9.18690551,8.75510448 8.46974016,8.51514925 7.6773937,8.51514925 C6.88383465,8.51514925 6.17775591,8.75510448 5.56140945,9.23776119 C4.93934646,9.71698507 4.63290551,10.4794179 4.63290551,11.5308955 L4.63290551,22.6711343 L-8.66141732e-05,22.6711343 L-8.66141732e-05,12.4471194 C-8.66141732e-05,9.47514179 0.785330709,7.48821642 2.35044882,6.48273881 C3.91470079,5.48052239 5.64923622,4.93384328 7.54608661,4.84373134 C8.5561811,4.84373134 9.55016535,4.95684328 10.5190315,5.17122388 C11.4901496,5.39264179 12.3713622,5.82741045 13.1659606,6.48273881 C13.8283858,5.91683582 14.6084331,5.51193284 15.5138976,5.26974627 C16.4183228,5.03253731 17.3561811,4.88938806 18.3240079,4.84373134 C20.2658976,4.84373134 22.052748,5.34835821 23.6835197,6.35400746 C25.3144646,7.35673881 26.1314094,9.38949254 26.1314094,12.4471194 L26.1314094,22.6711343 L23.8160394,22.6711343 C23.1537874,22.6711343 22.6127953,22.4639627 22.1947953,22.0499627 C21.7755827,21.6340746 21.5675354,21.1019851 21.5675354,20.4444254 L21.5675354,11.5308955 C21.5675354,10.4794179 21.2456772,9.71698507 20.6109685,9.23776119 C19.9682913,8.75510448 19.2537244,8.51514925 18.4573937,8.51514925 C17.6640079,8.51514925 16.9482283,8.75510448 16.3065906,9.23776119 C15.6682441,9.71698507 15.3486378,10.4794179 15.3486378,11.5308955 L15.3486378,12.4471194 L15.3486378,22.6711343 Z M44.4273197,5.23624179 L44.4273197,15.4626597 C44.4273197,18.5659433 43.6128,20.5997269 41.9822016,21.5597194 C40.3496976,22.5219433 38.5645795,22.9999657 36.6223433,22.9999657 C34.7227213,22.9120851 32.9958079,22.3894358 31.4279181,21.424809 C29.8659181,20.4672194 29.0822331,18.4780627 29.0822331,15.4626597 L29.0822331,5.23624179 L33.7115874,5.23624179 L33.7115874,16.3790552 C33.7115874,17.4267567 34.0199339,18.1938239 34.639052,18.6728761 C35.255052,19.1562194 35.9609575,19.3970328 36.7546898,19.3970328 C37.5470362,19.3970328 38.2655874,19.1562194 38.9034142,18.6728761 C39.538989,18.1938239 39.8624063,17.4267567 39.8624063,16.3790552 L39.8624063,7.46638358 C39.8624063,6.85345075 40.0713197,6.33200299 40.4919181,5.89380149 C40.9139024,5.4576597 41.4521228,5.23624179 42.1143748,5.23624179 L44.4273197,5.23624179 Z M47.046463,0.124371642 L49.4295654,0.124371642 C50.0471244,0.124371642 50.5758173,0.335319403 51.0146047,0.748289552 C51.4544315,1.16572239 51.6806677,1.67790149 51.6806677,2.28585672 L51.6806677,22.6734687 L47.046463,22.6734687 L47.046463,0.124371642 Z M62.6479276,22.6711343 C61.1919433,22.762791 59.6157386,22.7373881 57.9189669,22.6084851 C56.222022,22.4749478 55.3728567,21.4080224 55.3728567,19.393291 L55.3728567,0.124440299 L57.7526677,0.124440299 C58.3236283,0.124440299 58.8303213,0.344485075 59.2703213,0.781828358 C59.7165575,1.22002985 59.9315339,1.7438806 59.9315339,2.35320896 L59.9315339,5.30373134 L62.6479276,5.30373134 L62.6479276,6.22235821 C62.6479276,6.87631343 62.4241165,7.41252239 61.9832504,7.8253209 C61.5468882,8.24447015 61.0145575,8.44923881 60.398211,8.44923881 L59.9315339,8.44923881 L59.9315339,18.1490597 C59.9315339,18.8922687 60.3751717,19.2631866 61.2575969,19.2631866 L62.6479276,19.2631866 L62.6479276,22.6711343 Z M65.8102803,5.23624179 L68.1947685,5.23624179 C68.8097291,5.23624179 69.3408472,5.4576597 69.7770362,5.89380149 C70.220674,6.33200299 70.4418866,6.85345075 70.4418866,7.46638358 L70.4418866,22.6711 L65.8102803,22.6711 L65.8102803,5.23624179 Z M65.8102803,0.12440597 L68.1947685,0.12440597 C68.8097291,0.12440597 69.3408472,0.344450746 69.7770362,0.78179403 C70.220674,1.22016716 70.4418866,1.74384627 70.4418866,2.35317463 L70.4418866,3.72751045 L65.8102803,3.72751045 L65.8102803,0.12440597 Z M85.25,17.2981112 L88.5520787,17.2981112 C88.0718898,19.1341634 87.145811,20.5299545 85.7762677,21.4932082 C84.410189,22.4978276 82.6914173,23.0000515 80.6182205,23.0000515 C78.1010394,23.0000515 76.142,22.1940216 74.7296693,20.5769843 C73.3152598,19.0018276 72.6112598,16.7534918 72.6112598,13.8223649 C72.6112598,11.0247754 73.297937,8.84389478 74.6664409,7.27011119 C76.0753071,5.6506709 78.037811,4.84361119 80.5487559,4.84361119 C83.1972441,4.84361119 85.25,5.63247687 86.7045984,7.20385746 C87.4969449,8.16728284 88.0718898,9.27986493 88.4231969,10.5457231 L83.7924567,10.5457231 C83.5722835,10.1095813 83.3502047,9.78105896 83.1300315,9.5606709 C82.5588976,8.95374552 81.743685,8.64393209 80.683874,8.64393209 C79.7139685,8.64393209 78.9202362,8.95374552 78.304063,9.5606709 C77.5117165,10.4382754 77.1117323,11.8786933 77.1117323,13.8898201 C77.1117323,15.9007754 77.5117165,17.3185366 78.304063,18.1491112 C78.8741575,18.8487231 79.7377008,19.2005888 80.8832598,19.2005888 C81.6316063,19.2005888 82.2675276,19.0464545 82.799685,18.7392157 C82.9311654,18.6983649 83.0574488,18.6212978 83.1653701,18.5105888 C83.2748504,18.3998799 83.3987087,18.279559 83.5265512,18.1491112 C83.6178425,18.0167754 83.7924567,17.8435888 84.0574961,17.6242306 C84.3225354,17.407447 84.7209606,17.2981112 85.25,17.2981112 Z M95.9520992,12.1847306 L102.702461,12.1847306 C102.61117,11.00435 102.301091,10.1313799 101.771532,9.5606709 C101.200398,8.95374552 100.384493,8.64685 99.3272803,8.64685 C98.3549496,8.64685 97.5686661,8.95374552 96.9462567,9.5606709 C96.3267921,10.1760067 95.9993906,11.0476037 95.9520992,12.1847306 Z M103.888383,17.2981112 L107.201375,17.2981112 C106.711831,19.1341634 105.788005,20.5299545 104.419847,21.4932082 C103.052556,22.4978276 101.332745,23.0000515 99.2616268,23.0000515 C96.7458315,23.0000515 94.7866189,22.1940216 93.3746346,20.5769843 C91.9645559,19.0018276 91.2548394,16.7534918 91.2548394,13.8223649 C91.2548394,11.0247754 91.9429024,8.84046194 93.3089811,7.27011119 C94.717674,5.6506709 96.6791386,4.84361119 99.1961465,4.84361119 C101.841863,4.84361119 103.888383,5.63247687 105.345926,7.20385746 C106.755485,8.82106642 107.465202,11.0730067 107.465202,13.9557306 L107.465202,14.4134993 L107.465202,14.6762828 C107.465202,14.8977007 107.442162,15.0482306 107.398509,15.1338799 L95.9520992,15.1338799 C95.9993906,16.492253 96.3267921,17.4929246 96.9462567,18.1516858 C97.5187764,18.8487231 98.3759102,19.1980142 99.5216425,19.1980142 C100.277611,19.1980142 100.914398,19.0464545 101.44569,18.7393873 C101.574398,18.6983649 101.698257,18.6212978 101.808083,18.5105888 C101.916005,18.3998799 102.040036,18.2816187 102.173942,18.1516858 C102.217422,18.0203799 102.382855,17.8435888 102.667123,17.6242306 C102.947753,17.407447 103.362288,17.2981112 103.888383,17.2981112 Z M110.566959,22.6711343 L110.566959,14.214 C110.566959,12.512 110.814849,11.081709 111.321715,9.92432836 C111.832046,8.76952239 112.524786,7.83476119 113.404786,7.13755224 C114.243211,6.48273881 115.225243,6.00454478 116.350707,5.69490299 C117.474959,5.39264179 118.633337,5.23627612 119.821857,5.23627612 L120.153589,5.23627612 L120.480471,5.23627612 L120.480471,9.89188806 L118.964896,9.89188806 C117.684219,9.89188806 116.734754,10.1974104 116.113731,10.8117164 C115.50362,11.4200149 115.195101,12.3810373 115.195101,13.6934104 L115.195101,22.6711343 L110.566959,22.6711343 Z M131.868554,22.6711343 C130.414995,22.762791 128.83498,22.7373881 127.140633,22.6084851 C125.439011,22.4749478 124.595909,21.4080224 124.595909,19.393291 L124.595909,0.124440299 L126.973121,0.124440299 C127.544082,0.124440299 128.055972,0.344485075 128.495798,0.781828358 C128.939263,1.22002985 129.159436,1.7438806 129.159436,2.35320896 L129.159436,5.30373134 L131.868554,5.30373134 L131.868554,6.22235821 C131.868554,6.87631343 131.65098,7.41252239 131.211153,7.8253209 C130.765956,8.24447015 130.242287,8.44923881 129.618838,8.44923881 L129.159436,8.44923881 L129.159436,18.1490597 C129.159436,18.8922687 129.595798,19.2631866 130.481861,19.2631866 L131.868554,19.2631866 L131.868554,22.6711343 Z" id="Fill-1"></path>
                    </g>
                </g>
            </g>
        </g>
    </g>
</svg>